<?xml version="1.0" standalone="no"?>
<!DOCTYPE svg PUBLIC "-//W3C//DTD SVG 20010904//EN"
 "http://www.w3.org/TR/2001/REC-SVG-20010904/DTD/svg10.dtd">
<svg version="1.0" xmlns="http://www.w3.org/2000/svg"
 width="225.000000pt" height="225.000000pt" viewBox="0 0 225.000000 225.000000"
 preserveAspectRatio="xMidYMid meet">

<g transform="translate(0.000000,225.000000) scale(0.100000,-0.100000)"
fill="#000000" stroke="none">
<path d="M105 2231 c-48 -22 -69 -44 -90 -94 -13 -32 -15 -157 -15 -1014 0
-928 1 -980 19 -1018 22 -48 44 -69 94 -90 32 -13 157 -15 1014 -15 928 0 980
1 1018 19 48 22 69 44 90 94 13 32 15 157 15 1012 0 855 -2 980 -15 1012 -21
50 -42 72 -90 94 -38 18 -90 19 -1020 19 -930 0 -982 -1 -1020 -19z m1163
-538 c5 -16 103 -279 216 -585 113 -307 206 -562 206 -568 0 -7 -51 -10 -151
-8 l-152 3 -34 108 -34 107 -196 -2 -197 -3 -33 -107 -34 -108 -149 0 c-88 0
-150 4 -150 9 0 7 339 939 421 1159 8 21 13 22 143 22 l134 0 10 -27z"/>
<path d="M1121 1379 c-1 -4 -28 -94 -61 -200 -32 -106 -58 -195 -56 -196 2 -2
57 -2 123 -1 l120 3 -59 190 c-62 203 -66 213 -67 204z"/>
</g>
</svg>
